<svg id="Layer_1" height="512" viewBox="0 0 512 512" width="512" xmlns="http://www.w3.org/2000/svg" data-name="Layer 1"><path d="m66 42a46.052 46.052 0 0 0 -46 46v336a46.052 46.052 0 0 0 46 46h380a46.052 46.052 0 0 0 46-46v-336a46.052 46.052 0 0 0 -46-46zm414 382a34.038 34.038 0 0 1 -34 34h-380a34.038 34.038 0 0 1 -34-34v-40h448zm0-336v284h-448v-284a34.038 34.038 0 0 1 34-34h380a34.038 34.038 0 0 1 34 34z"/><path d="m90.5 449.856a29.917 29.917 0 1 0 -29.917-29.917 29.951 29.951 0 0 0 29.917 29.917zm0-47.834a17.917 17.917 0 1 1 -17.917 17.917 17.937 17.937 0 0 1 17.917-17.917z"/><path d="m413 445h37a6 6 0 0 0 6-6v-30a6 6 0 0 0 -6-6h-37a6 6 0 0 0 -6 6v30a6 6 0 0 0 6 6zm6-30h25v18h-25z"/><path d="m353 445h37a6 6 0 0 0 6-6v-30a6 6 0 0 0 -6-6h-37a6 6 0 0 0 -6 6v30a6 6 0 0 0 6 6zm6-30h25v18h-25z"/><path d="m293 445h37a6 6 0 0 0 6-6v-30a6 6 0 0 0 -6-6h-37a6 6 0 0 0 -6 6v30a6 6 0 0 0 6 6zm6-30h25v18h-25z"/><path d="m233 445h37a6 6 0 0 0 6-6v-30a6 6 0 0 0 -6-6h-37a6 6 0 0 0 -6 6v30a6 6 0 0 0 6 6zm6-30h25v18h-25z"/><path d="m407.536 79.288h-303.072a49.661 49.661 0 0 0 -49.6 49.605v179.214a49.661 49.661 0 0 0 49.6 49.6h303.072a49.661 49.661 0 0 0 49.6-49.6v-179.214a49.661 49.661 0 0 0 -49.6-49.605zm37.6 228.819a37.647 37.647 0 0 1 -37.6 37.6h-303.072a37.647 37.647 0 0 1 -37.6-37.6v-88.121l19.088.059h.018a6 6 0 0 0 5.505-3.614l6.012-13.868 14.281 48.523a6.068 6.068 0 0 0 5.775 4.307 6 6 0 0 0 5.747-4.343l27.222-94.707 19.236 120.884a6 6 0 0 0 11.734.56l22.087-85.4 8.092 30.642a6 6 0 0 0 11.415.587l8.23-21.8 5.781 14.857a6 6 0 0 0 5.592 3.824h23.1l14.821 23.184a6 6 0 0 0 10.722-1.26l15.688-45.076 19.39 98.166a6 6 0 0 0 5.885 4.837h.1a6 6 0 0 0 5.826-5.02l19.161-115.795 15.348 75.527a6 6 0 0 0 11.5.922l14.58-38.709 9.959 24.143a6 6 0 0 0 10.809.594l11.489-20.98 14.083-.014zm0-99.091-17.646.017a6 6 0 0 0 -5.256 3.118l-7.17 13.092-10.972-26.6a6 6 0 0 0 -11.161.171l-12.61 33.448-17.686-87.026a6 6 0 0 0 -11.8.216l-19.073 115.293-17.262-87.419a6 6 0 0 0 -11.553-.809l-18.897 54.283-9.938-15.544a6 6 0 0 0 -5.055-2.768h-22.279l-9.97-25.622a6 6 0 0 0 -11.2.057l-7.134 18.9-9.164-34.7a6 6 0 0 0 -5.8-4.468h-.016a6 6 0 0 0 -5.793 4.5l-20.631 79.75-18.95-119.091a6 6 0 0 0 -11.692-.714l-28.976 100.81-13.133-44.62a6 6 0 0 0 -11.261-.692l-11.025 25.435-15.173-.047v-79.093a37.647 37.647 0 0 1 37.6-37.605h303.076a37.647 37.647 0 0 1 37.6 37.605z"/></svg>